<svg width="180" height="180" viewBox="0 0 180 180" fill="none" xmlns="http://www.w3.org/2000/svg">
  <defs>
    <linearGradient id="bg" x1="90" y1="0" x2="90" y2="180" gradientUnits="userSpaceOnUse">
      <stop offset="0%" stop-color="#3d8ef0"/>
      <stop offset="8%" stop-color="#2a6bce"/>
      <stop offset="50%" stop-color="#2262c9"/>
      <stop offset="95%" stop-color="#1857bc"/>
      <stop offset="100%" stop-color="#0a3fa8"/>
    </linearGradient>
    <linearGradient id="shine" x1="90" y1="0" x2="90" y2="90" gradientUnits="userSpaceOnUse">
      <stop offset="0%" stop-color="#ffffff" stop-opacity="0.55"/>
      <stop offset="100%" stop-color="#ffffff" stop-opacity="0"/>
    </linearGradient>
    <linearGradient id="bubble" x1="90" y1="46" x2="90" y2="132" gradientUnits="userSpaceOnUse">
      <stop offset="0%" stop-color="#ffffff"/>
      <stop offset="100%" stop-color="#e8f0ff"/>
    </linearGradient>
  </defs>

  <rect width="180" height="180" rx="36" fill="url(#bg)"/>
  <rect width="180" height="90" rx="36" fill="url(#shine)"/>

  <path d="M46 60c0-9.9 8.1-18 18-18h52c9.9 0 18 8.1 18 18v34c0 9.9-8.1 18-18 18H86l-22 20v-20h-0c-9.9 0-18-8.1-18-18V60z" fill="url(#bubble)" stroke="#0a3fa8" stroke-width="4"/>

  <circle cx="72" cy="77" r="6" fill="#1857bc"/>
  <circle cx="90" cy="77" r="6" fill="#1857bc"/>
  <circle cx="108" cy="77" r="6" fill="#1857bc"/>
</svg>
